<?xml version="1.0" encoding="UTF-8"?>
<svg id="b" xmlns="http://www.w3.org/2000/svg" version="1.1" viewBox="0 0 20 20">
  <!-- Generator: Adobe Illustrator 29.5.1, SVG Export Plug-In . SVG Version: 2.1.0 Build 141)  -->
  <defs>
    <style>
      .st0 {
        fill: #fff;
      }

      .st1 {
        fill: #e74c3c;
      }

      .st2 {
        fill: none;
      }
    </style>
  </defs>
  <rect class="st2" width="20" height="20"/>
  <g id="c">
    <g>
      <g>
        <rect class="st0" x="3.5092773" y="1.1044922" width="12.9819336" height="7.7885742" rx="1.4052734" ry="1.4052734"/>
        <path class="st1" d="M15.0855303,1.5373802c.5361795,0,.9723902.4361897.9723902.9723396v4.9781799c0,.53615-.4362106.9723396-.9723902.9723396H4.9144702c-.53618,0-.9723902-.4361897-.9723902-.9723396V2.5097198c0-.53615.4362102-.9723396.9723902-.9723396h10.1710601M15.0855303.6717701H4.9144702c-1.0151303,0-1.8380003.8228703-1.8380003,1.8379498v4.9781799c0,1.0150805.82287,1.8379498,1.8380003,1.8379498h10.1710601c1.01513,0,1.8380003-.8228693,1.8380003-1.8379498V2.5097198c0-1.0150795-.8228703-1.8379498-1.8380003-1.8379498h0Z"/>
      </g>
      <g>
        <path class="st1" d="M4.125,19.5c-.8950195,0-1.6235352-.7285156-1.6235352-1.6230469v-5.7509766c0-.8955078.7285156-1.6235352,1.6235352-1.6235352h4.3032227l1.5717773-4.9091797,1.5712891,4.9091797h4.3037109c.8945312,0,1.6230469.7280273,1.6230469,1.6235352v5.7509766c0,.8945312-.7285156,1.6230469-1.6230469,1.6230469H4.125Z"/>
        <path class="st0" d="M10,7.2331352l.9842796,3.074151.2225399.6950703h4.6682301c.619421,0,1.1233501.5039101,1.1233501,1.1232896v5.75106c0,.6193801-.5039291,1.1232901-1.1233501,1.1232901H4.1249499c-.6194198,0-1.1233499-.5039099-1.1233499-1.1232901v-5.75106c0-.6193795.5039301-1.1232896,1.1233499-1.1232896h4.6682305l.2225399-.6950703.9842796-3.074151M10,3.9537163l-1.9366503,6.0486403h-3.9383998c-1.17273,0-2.1233499.9506197-2.1233499,2.1232896v5.75106c0,1.1726701.9506199,2.1232901,2.1233499,2.1232901h11.7500997c1.1727295,0,2.1233501-.95062,2.1233501-2.1232901v-5.75106c0-1.1726699-.9506207-2.1232896-2.1233501-2.1232896h-3.9383993l-1.9366503-6.0486403h0Z"/>
      </g>
      <path class="st1" d="M12.4538452,6.8928582c-.7502758-.1709218-1.4097413-.4716826-1.9628194-.8955208.4989856-.538699.8807139-1.1942275,1.163073-1.9923477l.8683034-.0179738v-.6788943h-2.2110283v-.9084448h-.6944716v.9084448h-2.1743105v.6788943h.8144678c.2921163.7927281.691048,1.4708521,1.1865244,2.018966-.5157611.3918278-1.1480093.6921607-1.9266151.9153775l-.2169689.062309.3925981.6142744.1223071-.0374025c.8647943-.2644709,1.5659418-.6142744,2.1381063-1.0680689.6069137.503693,1.3185887.8558074,2.1716573,1.0750872l.1114373.0288436.463894-.6470551-.2470107-.0564889h.0008559ZM9.0010873,3.9870159h1.9133488c-.2349426.6069137-.5438344,1.1144583-.938829,1.5413777-.407833-.4316268-.7346129-.9489285-.9745197-1.5413777Z"/>
      <path class="st0" d="M10.2885539,12.403058h-.5744443l-2.4141096,5.1938839h.7311578l.710108-1.5253791h2.5166091l.710108,1.5253791h.732017l-2.4114461-5.1938839ZM9.0634564,15.3759749l.9377035-2.0141637.9349541,2.0141637h-1.8726576Z"/>
    </g>
  </g>
</svg>