<?xml version="1.0" encoding="UTF-8"?>
<svg id="Layer_1" xmlns="http://www.w3.org/2000/svg" version="1.1" viewBox="0 0 600 189.4663651">
  <!-- Generator: Adobe Illustrator 29.5.1, SVG Export Plug-In . SVG Version: 2.1.0 Build 141)  -->
  <defs>
    <style>
      .st0 {
        fill: #fff;
      }

      .st1 {
        fill: none;
      }

      .st2 {
        fill: #900;
      }

      .st3 {
        opacity: .5;
      }
    </style>
  </defs>
  <g id="Plugin_Header_Art_Expanded_V5">
    <g id="Inline_Tooltip_Translation">
      <path class="st3" d="M591.0486571,109.4828895h-278.4649346l-12.5324021-21.7067535-12.5324021,21.7067535H8.9407505C3.9970693,109.4828895-.0105705,113.4905313-.0105705,118.4342085v62.0807659c0,4.9436852,4.0076399,8.9513907,8.951321,8.9513907h582.1078429c4.9437807,0,8.9514066-4.0077055,8.9514066-8.9513907v-62.0807579c0-4.9436852-4.0076259-8.951319-8.9514066-8.951319l.0000637-.000008Z"/>
      <g>
        <path class="st0" d="M19.8841957,162.9441829v-33.6812446h4.7790969v33.6812446h-4.7790969Z"/>
        <path class="st0" d="M33.4704822,162.9441829v-24.714749h4.4832478v4.6425577c2.3667886-3.4591535,5.264589-5.1887382,8.6934014-5.1887382,2.1543846,0,3.8649967.6794825,5.1318361,2.0373494s1.9002591,3.181726,1.9002591,5.4726597v17.7509204h-4.4832478v-16.2944339c0-1.8357807-.2692981-3.1437965-.8078942-3.9251458s-1.4299375-1.172565-2.6740161-1.172565c-2.7460828,0-5.3328636,1.7978513-7.7603424,5.3935538v15.9985908s-4.4832478,0-4.4832438,0Z"/>
        <path class="st0" d="M62.3953848,162.9441829v-35.9342489h4.4832478v35.9342489h-4.4832478Z"/>
        <path class="st0" d="M75.867881,133.7461861v-4.4832478h4.4832478v4.4832478h-4.4832478ZM75.867881,162.9441829v-24.714749h4.4832478v24.714749h-4.4832478Z"/>
        <path class="st0" d="M89.3403773,162.9441829v-24.714749h4.4832478v4.6425577c2.3667926-3.4591535,5.264589-5.1887382,8.6933974-5.1887382,2.1543846,0,3.8649967.6794825,5.1318361,2.0373494s1.9002591,3.181726,1.9002591,5.4726597v17.7509204h-4.4832478v-16.2944339c0-1.8357807-.2693021-3.1437965-.8078982-3.9251458s-1.4299375-1.172565-2.6740161-1.172565c-2.7460868,0-5.3328636,1.7978513-7.7603385,5.3935538v15.9985908s-4.4832478,0-4.4832398,0Z"/>
        <path class="st0" d="M136.3803378,162.1476651c-3.0040004.9103061-5.5756087,1.3654591-7.7148248,1.3654591-3.6563928,0-6.6300402-1.2083138-8.9209739-3.6271221-2.2909337-2.4166436-3.4364006-5.5517655-3.4364006-9.4021348,0-3.743075,1.0127139-6.8131933,3.0381417-9.2081583,2.0254198-2.3949651,4.6160008-3.5924556,7.7717189-3.5924556,2.9888319,0,5.2987223,1.0663531,6.9296874,3.1968945,1.630965,2.1327061,2.4464396,5.1551381,2.4464396,9.0694446l-.0227608,1.3654591h-15.5889594c.6523765,5.8562832,3.5274201,8.7844248,8.6251308,8.7844248,1.8661179,0,4.1570516-.508251,6.8728012-1.5247531v3.5729417ZM121.0872215,147.9469256h10.900896c0-4.597036-1.7144002-6.8955461-5.1432165-6.8955461-3.4439849,0-5.3632008,2.2985101-5.7576795,6.8955461Z"/>
        <path class="st0" d="M166.8527504,162.9441829v-30.1083029h-11.9477352v-3.5729417h28.6745772v3.5729417h-11.9477352v30.1083029h-4.7791068Z"/>
        <path class="st0" d="M198.2809907,163.5131242c-3.6260397,0-6.4972952-1.1606434-8.6137504-3.4819143s-3.1746908-5.4694127-3.1746908-9.4444094,1.0582356-7.1187933,3.1746908-9.4335702c2.1164552-2.3126122,4.9877107-3.4699927,8.6137504-3.4699927s6.4972952,1.1573805,8.6137504,3.4699927c2.1164552,2.3147769,3.1746908,5.4585734,3.1746908,9.4335702s-1.0582356,7.1231226-3.1746908,9.4444094-4.9877107,3.4819143-8.6137504,3.4819143ZM198.2696103,160.1449982c2.2264553,0,3.9533183-.8344472,5.1800636-2.5033417s1.8406512-4.0205025,1.8406512-7.054856-.6139059-5.3827146-1.8406512-7.0429345c-1.2267453-1.6623845-2.9536083-2.4925024-5.1800636-2.4925024s-3.9500713.8301179-5.1692243,2.4925024c-1.2191531,1.6602199-1.8287296,4.0085809-1.8287296,7.0429345s.6095765,5.3859616,1.8287296,7.054856,2.942769,2.5033417,5.1692243,2.5033417Z"/>
        <path class="st0" d="M226.9100462,163.5131242c-3.6260397,0-6.4972952-1.1606434-8.6137504-3.4819143s-3.1746908-5.4694127-3.1746908-9.4444094,1.0582356-7.1187933,3.1746908-9.4335702c2.1164552-2.3126122,4.9877107-3.4699927,8.6137504-3.4699927s6.4972952,1.1573805,8.6137504,3.4699927c2.1164552,2.3147769,3.1746908,5.4585734,3.1746908,9.4335702s-1.0582356,7.1231226-3.1746908,9.4444094-4.9877107,3.4819143-8.6137504,3.4819143ZM226.8986658,160.1449982c2.2264553,0,3.9533183-.8344472,5.1800636-2.5033417s1.8406512-4.0205025,1.8406512-7.054856-.6139059-5.3827146-1.8406512-7.0429345c-1.2267453-1.6623845-2.9536083-2.4925024-5.1800636-2.4925024s-3.9500713.8301179-5.1692243,2.4925024c-1.2191531,1.6602199-1.8287296,4.0085809-1.8287296,7.0429345s.6095765,5.3859616,1.8287296,7.054856,2.942769,2.5033417,5.1692243,2.5033417Z"/>
        <path class="st0" d="M245.7078218,162.9441829v-35.9342489h4.4832478v35.9342489h-4.4832478Z"/>
        <path class="st0" d="M270.1949943,162.9441829c-1.3806118.3792942-2.5792005.5689413-3.5957026.5689413-2.2757651,0-4.0508556-.6523765-5.3252713-1.9571612s-1.9116236-3.1177887-1.9116236-5.4390596v-14.5193434h-3.0950279v-3.3681261h3.0950279v-4.4832478l4.4832478-.4323922v4.91564h6.4631539v3.3681261h-6.4631539v13.7000648c0,3.231577,1.3957963,4.8473734,4.1873888,4.8473734.5916862,0,1.3123611-.0986197,2.161961-.2958431v3.0950279Z"/>
        <path class="st0" d="M276.6126265,133.7461861v-4.4832478h4.4832478v4.4832478h-4.4832478ZM276.6126265,162.9441829v-24.714749h4.4832478v24.714749h-4.4832478Z"/>
        <path class="st0" d="M290.0851307,171.9334234v-33.7040054h4.4832478v4.6425418c1.8357648-3.4591535,4.5894438-5.1887382,8.2615464-5.1887382,2.9736474,0,5.3122833,1.0847846,7.0201736,3.2543378,1.7057256,2.1695532,2.5596867,5.1356242,2.5596867,8.8982131,0,4.0963613-.9666511,7.4005501-2.9021497,9.9114681-1.9333021,2.510918-4.4778361,3.7658358-7.6335383,3.7658358-2.9286987,0-5.3637578-1.122714-7.3057186-3.3681261v11.7884412h-4.4832478v.0000318ZM294.5683785,157.0542996c2.3061023,2.0601102,4.5060086,3.0906985,6.5991459,3.0906985,2.0633413,0,3.6563769-.8593727,4.7791068-2.5802828,1.1226981-1.7187454,1.6840471-4.1397184,1.6840471-7.2618364,0-5.7880166-1.9116236-8.6825581-5.7349027-8.6825581-2.5028005,0-4.945436,1.3557022-7.3273971,4.0681888v11.36579Z"/>
        <path class="st0" d="M342.0412724,162.9441829v-30.1083029h-11.9477511v-3.5729417h28.6745772v3.5729417h-11.9477511v30.1083029h-4.7791068.0000318Z"/>
        <path class="st0" d="M363.6371345,162.9441829v-24.714749h4.4832478v4.6425577c1.7750904-3.4591535,4.3542909-5.1887382,7.7375697-5.1887382.455153,0,.9330669.0379294,1.4337416.1148706v4.2090673c-.7737729-.2579137-1.4564706-.3868864-2.0481886-.3868864-2.8371142,0-5.211499,1.6818984-7.1231226,5.0467615v16.2771006h-4.4832478v.0000159Z"/>
        <path class="st0" d="M395.4522612,159.8036334c-2.6853965,2.4729886-5.2721733,3.7094908-7.7603305,3.7094908-2.0481886,0-3.7474202-.6404708-5.0976948-1.9235611-1.3502746-1.2809257-2.0254278-2.9010514-2.0254278-4.8582126,0-2.7005651,1.1335532-4.7747616,3.4017102-6.2236558s5.52684-2.1738985,9.774935-2.1738985h1.0468392v-2.9812396c0-2.8674514-1.4944159-4.3011929-4.4832478-4.3011929-2.3212868,0-4.8549656.7282353-7.6010365,2.1847218v-3.7094908c3.019169-1.22891,5.8638595-1.843373,8.5341034-1.843373,2.7460708,0,4.7714986.6263686,6.0762834,1.8769571,1.3047848,1.2527532,1.9571453,3.1828083,1.9571453,5.792346v11.1967391c0,2.564016.7889256,3.8460399,2.3667767,3.8460399.1972393,0,.4854902-.0303372.8647844-.0910274l.3186199,2.4805808c-1.0165021.4854902-2.1392001.7282353-3.3681261.7282353-2.0937103,0-3.4288004-1.2365022-4.0053339-3.7094908v.0000318ZM394.7922925,157.3685742v-6.3948873l-1.4337416-.0455217c-2.4881572,0-4.4940711.4627453-6.0199384,1.3882199-1.5236708.9254746-2.2865885,2.1543846-2.2865885,3.68673,0,1.0771923.3792942,1.9874984,1.1378826,2.7309182s1.6840471,1.1151217,2.7764398,1.1151217c1.8661338,0,3.8080946-.826855,5.825946-2.4805808Z"/>
        <path class="st0" d="M408.4479339,162.9441829v-24.714749h4.4832478v4.6425577c2.3667767-3.4591535,5.264597-5.1887382,8.6933974-5.1887382,2.1543846,0,3.8644714.6794825,5.1323932,2.0373494,1.2657571,1.3578668,1.899718,3.181726,1.899718,5.4726597v17.7509204h-4.4832478v-16.2944339c0-1.8357807-.2698512-3.1437965-.8084394-3.9251458s-1.4293804-1.172565-2.6734908-1.172565c-2.7460708,0-5.3328795,1.7978513-7.7603305,5.3935538v15.9985908h-4.4832478Z"/>
        <path class="st0" d="M436.4614601,162.0793985v-4.1191222c2.9281575,1.4564865,5.476989,2.1847218,7.6465582,2.1847218,1.2896003,0,2.3592003-.348957,3.208832-1.0468552s1.2744157-1.5702748,1.2744157-2.6171299c0-1.5323453-1.1909806-2.7991848-3.5729417-3.8005182l-2.617114-1.1151217c-3.8688008-1.6082042-5.8031852-3.9218988-5.8031852-6.9410678,0-2.1543846.7618354-3.8492869,2.2876708-5.0857732,1.5236708-1.2365022,3.6141341-1.8552786,6.2691616-1.8552786,1.3806118,0,3.0874515.1896471,5.1204557.5689413l.9330669.1820548v3.7322517c-2.5033417-.7434198-4.4984323-1.1151217-5.9852401-1.1151217-1.3047848,0-2.348377.2839215-3.1297262.8539451-.7813492.567859-1.1714667,1.3307767-1.1714667,2.2866044,0,1.3502905,1.0923609,2.4881572,3.2770827,3.4136318l2.161961.9103061c2.4426355,1.0316707,4.1722361,2.1207846,5.1887382,3.2662594s1.5247531,2.5748553,1.5247531,4.2892714c0,2.1695532-.8572081,3.9522359-2.5716242,5.3480322s-3.9067143,2.0936944-6.5769581,2.0936944c-2.0481886,0-4.5363458-.4779139-7.4645033-1.4337257h.0000637Z"/>
        <path class="st0" d="M461.1307033,162.9441829v-35.9342489h4.4832478v35.9342489h-4.4832478Z"/>
        <path class="st0" d="M487.3474287,159.8036334c-2.6853965,2.4729886-5.2721733,3.7094908-7.7603305,3.7094908-2.0481886,0-3.7474202-.6404708-5.0976948-1.9235611-1.3502746-1.2809257-2.0254278-2.9010514-2.0254278-4.8582126,0-2.7005651,1.1335532-4.7747616,3.4017102-6.2236558,2.268157-1.4488943,5.52684-2.1738985,9.774935-2.1738985h1.0468392v-2.9812396c0-2.8674514-1.4944159-4.3011929-4.4832478-4.3011929-2.3212868,0-4.8549656.7282353-7.6010365,2.1847218v-3.7094908c3.019169-1.22891,5.8638595-1.843373,8.5341034-1.843373,2.7460708,0,4.7714986.6263686,6.0762834,1.8769571,1.3047848,1.2527532,1.9571453,3.1828083,1.9571453,5.792346v11.1967391c0,2.564016.7889256,3.8460399,2.3667767,3.8460399.1972393,0,.4854902-.0303372.8647844-.0910274l.3186199,2.4805808c-1.0165021.4854902-2.1392001.7282353-3.3681261.7282353-2.0937103,0-3.4288004-1.2365022-4.0053339-3.7094908v.0000318ZM486.68746,157.3685742v-6.3948873l-1.4337416-.0455217c-2.4881572,0-4.4940711.4627453-6.0199384,1.3882199-1.5236708.9254746-2.2865885,2.1543846-2.2865885,3.68673,0,1.0771923.3792942,1.9874984,1.1378826,2.7309182s1.6840471,1.1151217,2.7764398,1.1151217c1.8661338,0,3.8080946-.826855,5.825946-2.4805808Z"/>
        <path class="st0" d="M511.3577856,162.9441829c-1.3806118.3792942-2.5792005.5689413-3.5957026.5689413-2.2757651,0-4.0508556-.6523765-5.3252713-1.9571612s-1.9116236-3.1177887-1.9116236-5.4390596v-14.5193434h-3.0950279v-3.3681261h3.0950279v-4.4832478l4.4832478-.4323922v4.91564h6.4631539v3.3681261h-6.4631539v13.7000648c0,3.231577,1.3957963,4.8473734,4.1873888,4.8473734.5916862,0,1.3123611-.0986197,2.161961-.2958431v3.0950279Z"/>
        <path class="st0" d="M517.7754178,133.7461861v-4.4832478h4.4832478v4.4832478h-4.4832478ZM517.7754178,162.9441829v-24.714749h4.4832478v24.714749h-4.4832478Z"/>
        <path class="st0" d="M541.0792338,163.5131242c-3.6260716,0-6.4967381-1.1606434-8.6142916-3.4819143-2.1153888-2.3212709-3.1741655-5.4694127-3.1741655-9.4444094s1.0587767-7.1187933,3.1741655-9.4335702c2.1175535-2.3126122,4.98822-3.4699927,8.6142916-3.4699927s6.4967381,1.1573805,8.6142916,3.4699927c2.1153888,2.3147769,3.1741655,5.4585734,3.1741655,9.4335702s-1.0587767,7.1231226-3.1741655,9.4444094c-2.1175535,2.3212709-4.98822,3.4819143-8.6142916,3.4819143ZM541.0672645,160.1449982c2.2269965,0,3.9544006-.8344472,5.18113-2.5033417s1.8400941-4.0205025,1.8400941-7.054856-.6133647-5.3827146-1.8400941-7.0429345c-1.2267294-1.6623845-2.9541335-2.4925024-5.18113-2.4925024-2.2259141,0-3.9489889.8301179-5.168142,2.4925024-1.2202354,1.6602199-1.8292708,4.0085809-1.8292708,7.0429345s.6090354,5.3859616,1.8292708,7.054856c1.2191531,1.6688944,2.9422279,2.5033417,5.168142,2.5033417Z"/>
        <path class="st0" d="M559.8770094,162.9441829v-24.714749h4.483216v4.6425577c2.3668085-3.4591535,5.264597-5.1887382,8.6934292-5.1887382,2.1544165,0,3.8644396.6794825,5.1323613,2.0373494,1.2657571,1.3578668,1.8996861,3.181726,1.8996861,5.4726597v17.7509204h-4.483216v-16.2944339c0-1.8357807-.2698194-3.1437965-.8084394-3.9251458s-1.4293804-1.172565-2.6734908-1.172565c-2.7460708,0-5.3328477,1.7978513-7.7603305,5.3935538v15.9985908h-4.483216Z"/>
      </g>
    </g>
    <g id="AO3_Logo">
      <path class="st2" d="M318.1402893,0c-13.9673157,0-25.2915955,11.0271893-25.2915955,24.6322498,0,13.6024761,11.3242798,24.6265621,25.2915955,24.6265621s25.2915955-11.024086,25.2915955-24.626564C343.4318848,11.0271864,332.107605-.0000038,318.1402893,0ZM226.2780609,1.1847353c-.7590332.0310535-1.0405121.2400937-1.2438202.444418,0,0-.3259888,1.3034673,2.0644684,1.7361979,2.3878479.4353423,16.0735626,4.455297,34.8672028,19.2254424,18.7900085,14.7729912,29.0003967,27.9144478,36.2763672,35.6273766,0,0-22.1580505,7.8204956-48.1159668,24.9810486,0,0,9.1236572-10.9697876,12.7078552-38.2336922.5239868-3.9857445,1.4913635-8.9594612,1.9553833-13.68573,0,0,.5421753-3.8006153-.868103-3.8006153-1.4129028,0-3.6940918,19.0087643-7.6043396,30.8465557-2.129776,6.4467545-4.778244,14.4472046-12.3823242,24.874527-4.7027435,6.4519196-9.4028931,11.2901535-8.3629608,13.469574,2.2809601,4.778244,7.0595398.1070633,7.0595398.1070633,0,0,30.4147491-20.0934372,62.3472748-29.9777832,0,0,7.7760315,8.5059433,9.1603699,10.1431656,4.1683044,4.9269104,7.1585693,10.3727722,10.714325,10.2789078,2.8883972-.0782013,3.9104919-1.6292572,5.4329224-9.9944839,1.5197754-8.3626938,4.8873596-16.6186142,4.8873596-16.6186142,0,0,19.1421814-.9201965,20.093689,5.2136612.6360779,4.0979614-2.2104492,6.2096405-4.478302,6.9630966-1.1053162.370163-4.5072632,1.3604279-5.9200439,1.7644806-2.64328.7533722-3.3183899,4.7678986,1.0585022,6.6967773,7.1427917,3.1464539,14.4653015,4.7133408,13.7927856,10.2111664-.6517029,5.3204498-9.4602966,7.9771805-15.6409912,6.6241226-11.4049377-2.4973526-11.9523315-7.8101501-13.9024048-7.0595474-1.4128723.5422058,2.606842,4.887619,4.7782593,6.3003998,2.1741028,1.4103088,18.1410217,9.4502182,26.5026855-.5444031,9.4522705-11.2927322-8.6887512-18.354866-8.6887512-18.354866,0,0,11.1859436-4.9975052,9.1239014-14.4472046-2.0646057-9.4496956-14.2310486-10.8624878-23.2453308-11.621109,0,0,3.9102478-9.8848572,12.92453-20.2028122,4.6869812-5.3649216,12.0878296-11.4543362,16.5115662-14.7729874,4.3430786-3.2584095,7.6904297-3.8399162,6.7337341-5.7561264-1.0870667-2.1714888-18.6832275,10.536953-22.0484314,13.5766201-3.368042,3.0422497-13.1437683,12.5987339-21.2900696,27.1542759,0,0-13.1412048.651783-23.1359558,3.0396652,0,0-14.2281799-15.4217224-30.8465576-28.3488331-16.6186218-12.9247837-32.149704-20.7455349-41.6001892-23.678154-5.7625885-1.7889447-8.3539124-2.2323799-9.6188049-2.1806159l.0005951-.0009604.0000305-.0000043ZM318.1402893,6.5250921c10.2683105,0,18.5917053,8.1046534,18.5917053,18.1069002,0,9.9970741-8.3233948,18.1045723-18.5917053,18.1045723s-18.5917053-8.1072388-18.5917053-18.1045723c0-10.0025063,8.3233948-18.1068993,18.5917053-18.1069002ZM326.9722595,61.5343475s-2.7635193,5.4662781-4.0617676,10.8676605c-2.2861938-2.8935776-7.658905-8.7456284-7.658905-8.7456284,0,0,4.0775452-1.0480042,11.7206421-2.1220245l.0000305-.0000076Z"/>
    </g>
    <rect id="Frame" class="st1" width="600" height="189.4663651"/>
  </g>
</svg>